<svg width="26" height="26" viewBox="0 0 26 26" fill="none" xmlns="http://www.w3.org/2000/svg">
<path d="M8 12H16M8 16H12M12 24C17.523 24 22 19.523 22 14C22 8.477 17.523 4 12 4C6.477 4 2 8.477 2 14C2 15.821 2.487 17.53 3.338 19L2.5 23.5L7 22.662C8.51954 23.541 10.2445 24.0026 12 24V24Z" stroke="#0D0D0D" stroke-width="1.5" stroke-linecap="round" stroke-linejoin="round"/>
<path d="M20 11C22.7614 11 25 8.76142 25 6C25 3.23858 22.7614 1 20 1C17.2386 1 15 3.23858 15 6C15 8.76142 17.2386 11 20 11Z" fill="#00AA45" stroke="white" stroke-width="2"/>
</svg>
