<svg width="20" height="20" viewBox="0 0 20 20" fill="none" xmlns="http://www.w3.org/2000/svg">
<path d="M8.5 9C9.56087 9 10.5783 8.57857 11.3284 7.82843C12.0786 7.07828 12.5 6.06087 12.5 5C12.5 3.93913 12.0786 2.92172 11.3284 2.17157C10.5783 1.42143 9.56087 1 8.5 1C7.43913 1 6.42172 1.42143 5.67157 2.17157C4.92143 2.92172 4.5 3.93913 4.5 5C4.5 6.06087 4.92143 7.07828 5.67157 7.82843C6.42172 8.57857 7.43913 9 8.5 9Z" stroke="#0D0D0D" stroke-width="1.5" stroke-linecap="round" stroke-linejoin="round"/>
<path d="M1.5 17V16C1.49976 14.819 1.79833 13.6571 2.36794 12.6225C2.93754 11.5879 3.75965 10.7142 4.75773 10.0828C5.75582 9.45145 6.89743 9.08286 8.07629 9.01137C9.25515 8.93988 10.4329 9.16783 11.5 9.67398" stroke="#0D0D0D" stroke-width="1.5" stroke-linecap="round" stroke-linejoin="round"/>
<path d="M13.135 13.415L14.174 11.212C14.2021 11.149 14.2479 11.0955 14.3057 11.058C14.3636 11.0205 14.4311 11.0005 14.5 11.0005C14.569 11.0005 14.6365 11.0205 14.6943 11.058C14.7522 11.0955 14.7979 11.149 14.826 11.212L15.866 13.415L18.189 13.771C18.487 13.816 18.605 14.2 18.389 14.42L16.709 16.133L17.105 18.554C17.156 18.865 16.845 19.102 16.578 18.955L14.5 17.812L12.422 18.955C12.155 19.102 11.844 18.865 11.895 18.555L12.291 16.133L10.611 14.42C10.395 14.2 10.513 13.816 10.811 13.77L13.135 13.415Z" stroke="#0D0D0D" stroke-width="1.5" stroke-linecap="round" stroke-linejoin="round"/>
</svg>
